<svg width="320" height="336" viewBox="0 0 320 336" fill="none" xmlns="http://www.w3.org/2000/svg">
<path d="M253.663 285.64L210.614 226.823C237.541 204.739 252.866 168.865 253.62 128.137C252.683 167.312 234.408 201.598 207.031 221.928L169.354 170.448C169.354 170.448 201.817 129.19 215.736 110.102C229.65 91.0203 245.109 91.0203 245.109 91.0203H194.09C201.823 91.0203 204.567 96.8655 204.567 100.647C204.567 104.428 201.987 107.009 201.987 107.009L143.413 186.723V193.828L239.779 313.307C239.779 313.307 262.971 336 285.298 336C307.626 336 320 325.856 320 325.856C283.242 325.856 253.663 285.628 253.663 285.628V285.64Z" fill="#F17D7D"/>
<path d="M133.508 225.989V109.347C133.508 99.5689 141.162 91.5805 150.798 91.0568V91.0264H80.4821V91.0568C90.1188 91.5805 97.7722 99.5689 97.7722 109.347V214.274C106.758 221.465 119.436 225.965 133.502 225.989H133.508Z" fill="#F17D7D"/>
<path d="M143.115 249.966C151.772 249.966 159.991 249.083 167.754 247.409L161.919 240.608C157.643 241.199 153.293 241.503 148.87 241.503C146.588 241.503 144.319 241.412 142.074 241.253C140.103 241.412 138.114 241.503 136.106 241.503C85.2822 241.503 44.083 189.256 44.083 124.813C44.083 60.3697 85.2883 8.11627 136.112 8.11627C170.461 8.11627 200.411 31.9841 216.217 67.3534V23.6486C195.666 8.77385 170.418 0 143.115 0H124.881C55.9098 0 0 55.9553 0 124.983C0 184.695 41.8441 234.617 97.7783 247.007V264.117C97.7783 273.895 90.1249 281.883 80.4882 282.407V282.438H150.804V282.407C141.168 281.883 133.514 273.895 133.514 264.117V249.972H143.121L143.115 249.966Z" fill="#F17D7D"/>
<path d="M253.62 128.143C253.644 127.096 253.663 126.043 253.663 124.983C253.663 126.043 253.638 127.09 253.62 128.143Z" fill="#F17D7D"/>
</svg>
